<svg xmlns="http://www.w3.org/2000/svg" xmlns:xlink="http://www.w3.org/1999/xlink" width="40" zoomAndPan="magnify" viewBox="0 0 30 30.000001" height="40" preserveAspectRatio="xMidYMid meet" version="1.0"><defs><clipPath id="b5befbdbe2"><path d="M 1.574219 1.867188 L 28.429688 1.867188 L 28.429688 28.722656 L 1.574219 28.722656 Z M 1.574219 1.867188 " clip-rule="nonzero"/></clipPath></defs><g clip-path="url(#b5befbdbe2)"><path fill="#000000" d="M 28.40625 11.761719 C 28.398438 11.71875 28.386719 11.699219 28.378906 11.679688 C 28.367188 11.660156 28.355469 11.648438 28.347656 11.632812 C 28.328125 11.609375 28.308594 11.589844 28.292969 11.570312 C 28.191406 11.46875 28.078125 11.386719 27.96875 11.300781 C 27.402344 10.882812 26.808594 10.503906 26.261719 10.058594 C 26.128906 9.949219 26 9.835938 25.886719 9.714844 C 25.773438 9.59375 25.667969 9.460938 25.683594 9.367188 C 25.691406 9.21875 25.75 9.042969 25.796875 8.894531 C 26.269531 7.566406 26.960938 6.308594 27.609375 5.058594 C 27.632812 4.976562 27.585938 4.890625 27.507812 4.867188 C 26.015625 4.429688 24.5 4.074219 22.96875 3.816406 C 18.433594 3.09375 13.367188 2.984375 9.347656 5.53125 C 9.1875 5.632812 9.035156 5.738281 8.886719 5.847656 C 8.65625 5.285156 7.671875 3.183594 5.226562 1.871094 C 5.226562 1.871094 6.484375 2.746094 6.257812 4.628906 C 6.257812 4.628906 6.777344 5.535156 6.050781 6.667969 C 6.050781 6.667969 6.710938 7.609375 5.792969 8.53125 C 5.792969 8.53125 5.835938 9.074219 5.792969 9.683594 C 5.578125 10.148438 5.394531 10.628906 5.242188 11.121094 C 4.988281 11.890625 4.820312 12.6875 4.738281 13.496094 C 3.613281 14.328125 2.519531 15.351562 1.574219 16.605469 C 1.574219 16.605469 2.625 15.527344 4.683594 14.621094 C 4.6875 15.796875 4.886719 16.972656 5.3125 18.074219 C 5.84375 19.46875 6.652344 20.761719 7.726562 21.792969 C 7.472656 22.339844 7.398438 23.125 7.410156 23.734375 C 7.511719 28.027344 11.007812 28.71875 11.007812 28.71875 C 9.121094 27.964844 8.15625 25.683594 8.222656 23.398438 C 8.230469 23.011719 8.300781 22.625 8.402344 22.246094 C 11.359375 25.050781 14.824219 24.996094 15.367188 24.96875 C 18.582031 28.003906 21.640625 26.589844 21.640625 26.589844 C 19.382812 26.769531 18.171875 25.539062 18.171875 25.539062 C 18.449219 25.539062 18.660156 25.40625 18.660156 25.40625 C 17.320312 24.996094 16.730469 24.46875 16.730469 24.46875 C 16.730469 23.402344 17.253906 22.234375 17.253906 22.234375 C 17.023438 22.351562 16.894531 22.433594 16.894531 22.433594 C 17.335938 20.394531 19.414062 19.558594 19.414062 19.558594 C 15.710938 20.632812 15.261719 23.683594 15.214844 24.570312 C 10.445312 24.511719 10.152344 20.214844 10.148438 19.269531 C 11.367188 18.199219 12.824219 17.382812 14.292969 16.667969 C 13.828125 17.0625 13.605469 17.414062 13.605469 17.414062 C 15.617188 17.730469 14.625 20.277344 14.625 20.277344 C 15.707031 18.144531 15.5625 16.582031 15.480469 16.105469 C 17.945312 15.015625 20.492188 14.132812 23.066406 13.355469 C 24.792969 12.832031 26.539062 12.355469 28.289062 11.933594 C 28.433594 11.890625 28.40625 11.761719 28.40625 11.761719 Z M 5.261719 13.121094 C 5.808594 10.644531 7.859375 5.160156 15.339844 4.082031 L 12.445312 5.324219 C 12.445312 5.324219 7.207031 7.359375 5.40625 13.023438 C 5.359375 13.054688 5.308594 13.089844 5.261719 13.121094 Z M 8.375 6.25 C 8.304688 6.308594 8.234375 6.367188 8.167969 6.429688 C 7.933594 6.140625 7.351562 5.464844 6.523438 4.734375 C 6.523438 4.734375 7.441406 5.304688 8.375 6.25 Z M 6.25 6.679688 C 6.25 6.679688 6.582031 6.710938 7.503906 7.085938 C 7.457031 7.136719 7.417969 7.183594 7.375 7.230469 C 7.144531 7.113281 6.785156 6.929688 6.25 6.679688 Z M 11.519531 10.621094 C 11.414062 10.730469 11.242188 10.96875 11.242188 10.96875 C 6.539062 12.109375 3.957031 14.519531 3.957031 14.519531 C 6.726562 11.796875 11.519531 10.621094 11.519531 10.621094 Z M 8.582031 21.691406 C 8.828125 21.039062 9.160156 20.433594 9.46875 19.949219 C 9.738281 21.164062 10.132812 22.394531 10.132812 22.394531 C 9.464844 22.203125 8.867188 21.863281 8.582031 21.691406 Z M 15.296875 15.792969 C 13.425781 16.664062 10.859375 17.90625 9.394531 19.601562 C 8.789062 20.1875 8.246094 20.820312 7.871094 21.511719 C 7.40625 21.058594 7 20.542969 6.636719 20.003906 C 5.925781 18.945312 5.429688 17.746094 5.175781 16.5 C 5.269531 15.664062 5.5 14.890625 5.820312 14.179688 C 7.410156 13.644531 9.4375 13.273438 11.890625 13.429688 C 11.890625 13.429688 9.640625 11.9375 12.945312 9.964844 C 12.945312 9.964844 10.316406 10.355469 7.304688 11.902344 C 9.367188 9.53125 12.304688 8.1875 13.363281 7.753906 C 13.308594 7.890625 13.265625 8.023438 13.238281 8.152344 C 13.199219 8.40625 13.242188 8.667969 13.273438 8.914062 C 13.46875 10.175781 13.902344 11.613281 14.65625 12.648438 C 14.875 12.929688 15.132812 13.203125 15.472656 13.339844 C 15.476562 13.339844 15.480469 13.339844 15.484375 13.34375 C 15.597656 13.398438 15.726562 13.445312 15.847656 13.480469 C 16.800781 13.769531 17.996094 13.824219 18.765625 13.085938 C 19.039062 12.820312 19.222656 12.460938 19.304688 12.09375 C 19.308594 12.082031 19.300781 12.070312 19.289062 12.066406 C 19.277344 12.058594 19.261719 12.066406 19.257812 12.078125 C 19.160156 12.304688 19.035156 12.511719 18.882812 12.691406 C 18.730469 12.867188 18.546875 13.011719 18.339844 13.117188 C 17.527344 13.515625 16.535156 13.351562 15.707031 13.050781 C 15.667969 13.035156 15.632812 13.015625 15.59375 12.996094 C 15.386719 12.835938 15.242188 12.582031 15.113281 12.351562 C 14.835938 11.816406 14.640625 11.210938 14.476562 10.621094 C 14.308594 10.023438 14.167969 9.40625 14.074219 8.796875 C 14.050781 8.640625 14.027344 8.476562 14.023438 8.320312 C 14.039062 8.148438 14.125 7.960938 14.199219 7.792969 C 14.609375 6.980469 15.136719 6.214844 15.644531 5.441406 C 16.644531 4.632812 17.4375 4.46875 17.667969 4.4375 C 17.585938 4.519531 17.503906 4.605469 17.425781 4.691406 C 17.28125 4.828125 17.15625 4.980469 17.050781 5.117188 C 16.695312 5.539062 16.371094 5.988281 16.082031 6.464844 C 15.402344 7.585938 15.023438 8.828125 15.996094 9.925781 C 16.660156 10.65625 17.707031 10.980469 18.664062 10.800781 C 19.1875 10.707031 19.6875 10.449219 20.046875 10.054688 C 20.164062 9.925781 20.273438 9.78125 20.339844 9.617188 C 20.34375 9.609375 20.339844 9.601562 20.332031 9.597656 C 20.324219 9.59375 20.3125 9.597656 20.308594 9.605469 C 19.835938 10.371094 18.832031 10.691406 17.972656 10.570312 C 16.796875 10.398438 15.792969 9.386719 15.917969 8.203125 C 16.023438 7.34375 16.585938 6.3125 17.148438 5.402344 C 21.277344 4.042969 26.328125 5.144531 26.328125 5.144531 L 27.230469 5.121094 C 26.761719 6 26.3125 6.886719 25.902344 7.800781 C 25.757812 8.125 25.621094 8.453125 25.503906 8.800781 C 25.445312 8.984375 25.390625 9.152344 25.378906 9.359375 C 25.363281 9.734375 25.816406 10.070312 26.066406 10.292969 C 26.480469 10.632812 26.921875 10.933594 27.355469 11.238281 C 27.5 11.339844 27.644531 11.441406 27.785156 11.546875 C 27.847656 11.59375 27.910156 11.640625 27.972656 11.695312 C 23.644531 12.703125 19.363281 13.988281 15.292969 15.792969 Z M 15.296875 15.792969 " fill-opacity="1" fill-rule="nonzero"/></g><path fill="#000000" d="M 24.875 9.429688 C 24.644531 8.773438 26.273438 6.042969 26.570312 5.546875 C 26.613281 5.472656 26.613281 5.441406 26.601562 5.449219 C 26.128906 5.804688 25.703125 6.210938 25.289062 6.628906 C 24.773438 7.15625 24.300781 7.722656 23.863281 8.316406 C 23.695312 8.542969 23.507812 8.808594 23.355469 9.042969 C 23.125 9.394531 22.882812 9.804688 22.628906 10.132812 C 22.464844 10.328125 22.292969 10.566406 22.050781 10.652344 C 21.945312 10.675781 21.898438 10.621094 21.839844 10.53125 C 21.726562 10.3125 21.644531 10 21.613281 9.75 C 21.574219 9.394531 21.714844 9.117188 21.972656 8.882812 C 22.230469 8.625 22.488281 8.355469 22.746094 8.097656 C 23.152344 7.683594 23.574219 7.277344 24.003906 6.878906 C 24.429688 6.476562 24.867188 6.089844 25.304688 5.699219 C 25.316406 5.691406 25.316406 5.679688 25.308594 5.667969 C 25.300781 5.65625 25.285156 5.652344 25.273438 5.660156 C 24.324219 6.351562 23.425781 7.113281 22.574219 7.925781 C 22.363281 8.128906 22.152344 8.335938 21.945312 8.542969 C 21.851562 8.632812 21.710938 8.761719 21.625 8.859375 C 21.277344 9.238281 21.28125 9.769531 21.429688 10.234375 C 21.550781 10.707031 21.820312 11.171875 22.355469 10.800781 C 22.417969 10.753906 22.476562 10.703125 22.53125 10.652344 C 24.515625 11.828125 27.230469 11.464844 27.230469 11.464844 C 27.230469 11.464844 25.132812 10.160156 24.875 9.433594 Z M 24.875 9.429688 " fill-opacity="1" fill-rule="nonzero"/><path fill="#000000" d="M 21.945312 7.046875 C 22.425781 7.257812 22.910156 7.03125 23.257812 6.6875 C 23.601562 6.375 23.9375 5.886719 23.714844 5.410156 C 23.574219 5.09375 23.207031 4.96875 22.894531 4.90625 C 22.179688 4.761719 20.835938 4.925781 21.054688 5.941406 C 21.15625 6.421875 21.496094 6.847656 21.945312 7.046875 Z M 21.40625 5.367188 C 21.6875 5.144531 22.070312 5.085938 22.421875 5.070312 C 22.796875 5.0625 23.394531 5.113281 23.589844 5.46875 C 23.804688 5.878906 23.519531 6.355469 23.222656 6.648438 C 22.890625 6.953125 22.417969 7.117188 22.003906 6.914062 C 21.621094 6.722656 21.332031 6.316406 21.257812 5.902344 C 21.226562 5.699219 21.246094 5.5 21.40625 5.367188 Z M 21.40625 5.367188 " fill-opacity="1" fill-rule="nonzero"/><path fill="#000000" d="M 22.410156 6.535156 C 22.8125 6.613281 23.195312 6.207031 23.195312 5.882812 C 23.195312 5.554688 22.839844 5.339844 22.515625 5.339844 C 22.378906 5.339844 22.226562 5.355469 22.101562 5.398438 C 22.257812 5.40625 22.382812 5.515625 22.382812 5.648438 C 22.382812 5.78125 22.25 5.894531 22.085938 5.894531 C 21.945312 5.894531 21.824219 5.8125 21.796875 5.699219 C 21.792969 5.71875 21.792969 5.738281 21.792969 5.757812 C 21.792969 6.085938 21.921875 6.4375 22.410156 6.535156 Z M 22.410156 6.535156 " fill-opacity="1" fill-rule="nonzero"/></svg>