<svg xmlns="http://www.w3.org/2000/svg" xmlns:xlink="http://www.w3.org/1999/xlink" width="100" zoomAndPan="magnify" viewBox="0 0 75 74.999997" height="100" preserveAspectRatio="xMidYMid meet" version="1.0"><defs><clipPath id="c84a260e7e"><path d="M 1.820312 1.203125 L 73.820312 1.203125 L 73.820312 73.203125 L 1.820312 73.203125 Z M 1.820312 1.203125 " clip-rule="nonzero"/></clipPath><clipPath id="b8c93046bd"><path d="M 7.5 10.28125 L 67.5 10.28125 L 67.5 69.53125 L 7.5 69.53125 Z M 7.5 10.28125 " clip-rule="nonzero"/></clipPath></defs><g clip-path="url(#c84a260e7e)"><path fill="#004aad" d="M 37.933594 1.203125 C 18.019531 1.203125 1.820312 17.402344 1.820312 37.316406 C 1.820312 57.226562 18.019531 73.425781 37.933594 73.425781 C 57.84375 73.425781 74.042969 57.226562 74.042969 37.316406 C 74.042969 17.402344 57.84375 1.203125 37.933594 1.203125 " fill-opacity="1" fill-rule="nonzero"/></g><g clip-path="url(#b8c93046bd)"><path fill="#ffffff" d="M 67.121094 32.179688 C 67.105469 32.09375 67.078125 32.042969 67.054688 32.003906 C 67.03125 31.960938 67.007812 31.929688 66.988281 31.902344 C 66.945312 31.847656 66.90625 31.800781 66.863281 31.761719 C 66.640625 31.535156 66.390625 31.351562 66.144531 31.164062 C 64.886719 30.238281 63.566406 29.398438 62.355469 28.414062 C 62.058594 28.167969 61.769531 27.917969 61.515625 27.652344 C 61.269531 27.390625 61.035156 27.089844 61.070312 26.886719 C 61.085938 26.554688 61.214844 26.171875 61.316406 25.839844 C 62.375 22.894531 63.90625 20.117188 65.347656 17.34375 C 65.398438 17.164062 65.296875 16.976562 65.117188 16.921875 C 61.808594 15.953125 58.441406 15.164062 55.039062 14.59375 C 44.957031 12.992188 33.707031 12.757812 24.765625 18.390625 C 24.417969 18.613281 24.074219 18.847656 23.742188 19.089844 C 23.234375 17.84375 21.042969 13.195312 15.613281 10.292969 C 15.613281 10.292969 18.410156 12.230469 17.90625 16.390625 C 17.90625 16.390625 19.054688 18.402344 17.441406 20.910156 C 17.441406 20.910156 18.910156 22.992188 16.867188 25.039062 C 16.867188 25.039062 16.972656 26.238281 16.871094 27.585938 C 16.398438 28.609375 15.992188 29.671875 15.652344 30.765625 C 15.085938 32.46875 14.710938 34.234375 14.53125 36.019531 C 12.027344 37.867188 9.601562 40.132812 7.5 42.902344 C 7.5 42.902344 9.832031 40.523438 14.40625 38.515625 C 14.417969 41.121094 14.859375 43.714844 15.800781 46.160156 C 16.980469 49.242188 18.785156 52.105469 21.171875 54.390625 C 20.605469 55.597656 20.4375 57.332031 20.46875 58.6875 C 20.6875 68.191406 28.460938 69.71875 28.460938 69.71875 C 24.269531 68.050781 22.125 62.996094 22.265625 57.945312 C 22.289062 57.089844 22.441406 56.230469 22.671875 55.394531 C 29.242188 61.597656 36.941406 61.480469 38.144531 61.421875 C 45.292969 68.140625 52.085938 65.007812 52.085938 65.007812 C 47.066406 65.410156 44.375 62.679688 44.375 62.679688 C 44.992188 62.679688 45.464844 62.390625 45.464844 62.390625 C 42.484375 61.480469 41.171875 60.316406 41.171875 60.316406 C 41.171875 57.949219 42.335938 55.371094 42.335938 55.371094 C 41.828125 55.625 41.535156 55.804688 41.535156 55.804688 C 42.519531 51.296875 47.136719 49.441406 47.136719 49.441406 C 38.90625 51.820312 37.914062 58.578125 37.804688 60.539062 C 27.207031 60.40625 26.5625 50.894531 26.546875 48.808594 C 29.257812 46.433594 32.496094 44.621094 35.753906 43.039062 C 34.722656 43.914062 34.226562 44.699219 34.226562 44.699219 C 38.699219 45.398438 36.496094 51.039062 36.496094 51.039062 C 38.898438 46.316406 38.582031 42.851562 38.402344 41.796875 C 43.871094 39.386719 49.53125 37.433594 55.253906 35.707031 C 59.09375 34.554688 62.96875 33.496094 66.859375 32.566406 C 67.179688 32.472656 67.121094 32.179688 67.121094 32.179688 Z M 15.6875 35.195312 C 16.910156 29.710938 21.464844 17.574219 38.085938 15.183594 L 31.648438 17.9375 C 31.648438 17.9375 20.015625 22.4375 16.015625 34.976562 C 15.90625 35.050781 15.796875 35.125 15.6875 35.195312 Z M 22.605469 19.980469 C 22.453125 20.109375 22.296875 20.242188 22.148438 20.378906 C 21.628906 19.746094 20.339844 18.25 18.492188 16.632812 C 18.492188 16.632812 20.539062 17.886719 22.605469 19.980469 Z M 17.882812 20.933594 C 17.882812 20.933594 18.628906 21.003906 20.667969 21.835938 C 20.574219 21.941406 20.480469 22.050781 20.386719 22.15625 C 19.878906 21.890625 19.082031 21.492188 17.882812 20.933594 Z M 29.597656 29.660156 C 29.359375 29.898438 28.980469 30.429688 28.980469 30.429688 C 18.53125 32.953125 12.792969 38.289062 12.792969 38.289062 C 18.949219 32.265625 29.597656 29.660156 29.597656 29.660156 Z M 23.070312 54.164062 C 23.613281 52.71875 24.351562 51.382812 25.035156 50.304688 C 25.640625 53 26.515625 55.722656 26.515625 55.722656 C 25.03125 55.296875 23.699219 54.546875 23.070312 54.164062 Z M 37.988281 41.105469 C 33.832031 43.03125 28.125 45.785156 24.875 49.542969 C 23.53125 50.835938 22.324219 52.238281 21.488281 53.765625 C 20.457031 52.761719 19.550781 51.617188 18.75 50.425781 C 17.167969 48.082031 16.066406 45.433594 15.503906 42.671875 C 15.710938 40.824219 16.21875 39.113281 16.933594 37.539062 C 20.464844 36.347656 24.96875 35.527344 30.421875 35.878906 C 30.421875 35.878906 25.417969 32.570312 32.765625 28.210938 C 32.765625 28.210938 26.921875 29.070312 20.230469 32.5 C 24.816406 27.25 31.335938 24.269531 33.695312 23.3125 C 33.570312 23.609375 33.476562 23.90625 33.417969 24.195312 C 33.324219 24.757812 33.425781 25.335938 33.488281 25.882812 C 33.929688 28.671875 34.894531 31.855469 36.570312 34.144531 C 37.050781 34.769531 37.625 35.371094 38.378906 35.675781 C 38.386719 35.679688 38.394531 35.679688 38.402344 35.683594 C 38.65625 35.808594 38.949219 35.90625 39.214844 35.988281 C 41.335938 36.625 43.988281 36.75 45.699219 35.117188 C 46.304688 34.527344 46.714844 33.730469 46.894531 32.921875 C 46.902344 32.894531 46.886719 32.867188 46.863281 32.859375 C 46.835938 32.84375 46.800781 32.859375 46.789062 32.886719 C 46.570312 33.382812 46.296875 33.847656 45.957031 34.238281 C 45.621094 34.628906 45.210938 34.957031 44.753906 35.1875 C 42.945312 36.070312 40.738281 35.699219 38.902344 35.035156 C 38.816406 35 38.730469 34.957031 38.648438 34.914062 C 38.191406 34.558594 37.867188 34.003906 37.582031 33.492188 C 36.964844 32.304688 36.535156 30.964844 36.164062 29.660156 C 35.796875 28.339844 35.480469 26.964844 35.273438 25.625 C 35.21875 25.273438 35.171875 24.914062 35.164062 24.570312 C 35.191406 24.1875 35.386719 23.769531 35.554688 23.398438 C 36.464844 21.601562 37.636719 19.90625 38.761719 18.191406 C 40.984375 16.402344 42.746094 16.042969 43.253906 15.972656 C 43.074219 16.15625 42.898438 16.339844 42.722656 16.53125 C 42.402344 16.839844 42.117188 17.175781 41.886719 17.472656 C 41.097656 18.410156 40.375 19.40625 39.734375 20.460938 C 38.226562 22.941406 37.378906 25.691406 39.539062 28.121094 C 41.019531 29.734375 43.34375 30.457031 45.46875 30.058594 C 46.636719 29.851562 47.742188 29.277344 48.546875 28.410156 C 48.804688 28.117188 49.046875 27.804688 49.195312 27.441406 C 49.199219 27.421875 49.195312 27.402344 49.175781 27.394531 C 49.160156 27.386719 49.136719 27.390625 49.128906 27.410156 C 48.078125 29.109375 45.84375 29.820312 43.9375 29.546875 C 41.324219 29.167969 39.097656 26.929688 39.367188 24.304688 C 39.605469 22.402344 40.855469 20.121094 42.101562 18.109375 C 51.277344 15.101562 62.503906 17.539062 62.503906 17.539062 L 64.511719 17.480469 C 63.46875 19.429688 62.460938 21.394531 61.554688 23.414062 C 61.238281 24.136719 60.925781 24.863281 60.671875 25.625 C 60.539062 26.039062 60.417969 26.410156 60.390625 26.863281 C 60.351562 27.699219 61.363281 28.445312 61.921875 28.933594 C 62.839844 29.683594 63.824219 30.351562 64.789062 31.027344 C 65.109375 31.253906 65.425781 31.476562 65.734375 31.707031 C 65.875 31.816406 66.019531 31.921875 66.15625 32.035156 C 56.539062 34.265625 47.027344 37.109375 37.984375 41.105469 Z M 37.988281 41.105469 " fill-opacity="1" fill-rule="nonzero"/></g><path fill="#ffffff" d="M 59.273438 27.027344 C 58.757812 25.566406 62.375 19.523438 63.042969 18.429688 C 63.136719 18.265625 63.136719 18.195312 63.113281 18.214844 C 62.058594 18.996094 61.113281 19.894531 60.191406 20.824219 C 59.046875 21.992188 57.992188 23.246094 57.023438 24.558594 C 56.648438 25.058594 56.238281 25.648438 55.898438 26.167969 C 55.386719 26.945312 54.847656 27.851562 54.28125 28.574219 C 53.917969 29.015625 53.535156 29.535156 52.992188 29.726562 C 52.757812 29.78125 52.65625 29.660156 52.53125 29.460938 C 52.277344 28.976562 52.089844 28.285156 52.023438 27.730469 C 51.933594 26.941406 52.25 26.332031 52.828125 25.816406 C 53.394531 25.238281 53.96875 24.644531 54.539062 24.078125 C 55.449219 23.152344 56.382812 22.257812 57.332031 21.375 C 58.28125 20.488281 59.253906 19.628906 60.230469 18.769531 C 60.25 18.75 60.253906 18.71875 60.238281 18.691406 C 60.21875 18.667969 60.183594 18.664062 60.160156 18.679688 C 58.046875 20.207031 56.050781 21.894531 54.160156 23.691406 C 53.6875 24.140625 53.222656 24.597656 52.761719 25.054688 C 52.558594 25.261719 52.238281 25.542969 52.050781 25.757812 C 51.277344 26.601562 51.285156 27.773438 51.621094 28.800781 C 51.886719 29.851562 52.488281 30.878906 53.675781 30.054688 C 53.8125 29.953125 53.9375 29.84375 54.058594 29.726562 C 58.472656 32.332031 64.507812 31.527344 64.507812 31.527344 C 64.507812 31.527344 59.839844 28.636719 59.273438 27.03125 Z M 59.273438 27.027344 " fill-opacity="1" fill-rule="nonzero"/><path fill="#ffffff" d="M 52.765625 21.746094 C 53.832031 22.210938 54.910156 21.710938 55.679688 20.953125 C 56.441406 20.261719 57.1875 19.175781 56.695312 18.121094 C 56.382812 17.425781 55.5625 17.152344 54.875 17.007812 C 53.285156 16.695312 50.292969 17.050781 50.78125 19.296875 C 51.011719 20.367188 51.765625 21.308594 52.765625 21.746094 Z M 51.566406 18.03125 C 52.1875 17.539062 53.039062 17.410156 53.820312 17.371094 C 54.65625 17.351562 55.980469 17.464844 56.421875 18.253906 C 56.894531 19.160156 56.257812 20.222656 55.601562 20.863281 C 54.867188 21.535156 53.8125 21.902344 52.894531 21.449219 C 52.042969 21.03125 51.398438 20.132812 51.234375 19.214844 C 51.164062 18.761719 51.210938 18.324219 51.566406 18.03125 Z M 51.566406 18.03125 " fill-opacity="1" fill-rule="nonzero"/><path fill="#ffffff" d="M 53.796875 20.613281 C 54.6875 20.789062 55.539062 19.890625 55.539062 19.167969 C 55.539062 18.449219 54.753906 17.964844 54.027344 17.964844 C 53.722656 17.964844 53.390625 18.003906 53.105469 18.101562 C 53.453125 18.113281 53.730469 18.355469 53.730469 18.648438 C 53.730469 18.945312 53.4375 19.199219 53.074219 19.199219 C 52.757812 19.199219 52.496094 19.011719 52.433594 18.765625 C 52.425781 18.808594 52.421875 18.851562 52.421875 18.898438 C 52.421875 19.617188 52.707031 20.394531 53.796875 20.613281 Z M 53.796875 20.613281 " fill-opacity="1" fill-rule="nonzero"/></svg>