<svg xmlns="http://www.w3.org/2000/svg" xmlns:xlink="http://www.w3.org/1999/xlink" width="140" zoomAndPan="magnify" viewBox="0 0 104.88 30.000001" height="40" preserveAspectRatio="xMidYMid meet" version="1.0"><defs><g/></defs><g fill="#004aad" fill-opacity="1"><g transform="translate(3.634093, 23.233246)"><g><path d="M 1.40625 -0.109375 L 0.21875 -15.765625 L 5.703125 -16.171875 C 7.597656 -16.316406 9.066406 -16.0625 10.109375 -15.40625 C 11.148438 -14.757812 11.722656 -13.734375 11.828125 -12.328125 C 11.890625 -11.554688 11.742188 -10.863281 11.390625 -10.25 C 11.035156 -9.632812 10.515625 -9.164062 9.828125 -8.84375 C 10.648438 -8.707031 11.316406 -8.347656 11.828125 -7.765625 C 12.335938 -7.191406 12.628906 -6.46875 12.703125 -5.59375 C 12.816406 -4.09375 12.421875 -2.914062 11.515625 -2.0625 C 10.609375 -1.207031 9.269531 -0.707031 7.5 -0.5625 Z M 4.109375 -7.171875 L 4.421875 -2.9375 L 7.1875 -3.15625 C 7.945312 -3.207031 8.523438 -3.425781 8.921875 -3.8125 C 9.328125 -4.207031 9.507812 -4.726562 9.46875 -5.375 C 9.351562 -6.8125 8.554688 -7.488281 7.078125 -7.40625 Z M 3.9375 -9.4375 L 6.328125 -9.625 C 7.953125 -9.78125 8.71875 -10.492188 8.625 -11.765625 C 8.5625 -12.472656 8.3125 -12.96875 7.875 -13.25 C 7.4375 -13.53125 6.78125 -13.632812 5.90625 -13.5625 L 3.640625 -13.390625 Z M 3.9375 -9.4375 "/></g></g></g><g fill="#004aad" fill-opacity="1"><g transform="translate(18.207315, 22.175474)"><g><path d="M 4.84375 -0.265625 L 1.609375 -0.09375 L 0.734375 -15.765625 L 3.96875 -15.9375 Z M 4.84375 -0.265625 "/></g></g></g><g fill="#004aad" fill-opacity="1"><g transform="translate(25.143453, 21.749147)"><g><path d="M 13.75 -2.46875 C 13.1875 -1.75 12.378906 -1.175781 11.328125 -0.75 C 10.285156 -0.332031 9.117188 -0.101562 7.828125 -0.0625 C 6.460938 -0.0078125 5.253906 -0.257812 4.203125 -0.8125 C 3.160156 -1.375 2.34375 -2.207031 1.75 -3.3125 C 1.15625 -4.425781 0.828125 -5.742188 0.765625 -7.265625 L 0.71875 -8.34375 C 0.664062 -9.90625 0.878906 -11.265625 1.359375 -12.421875 C 1.847656 -13.585938 2.582031 -14.492188 3.5625 -15.140625 C 4.539062 -15.785156 5.695312 -16.128906 7.03125 -16.171875 C 8.894531 -16.242188 10.363281 -15.851562 11.4375 -15 C 12.507812 -14.15625 13.175781 -12.890625 13.4375 -11.203125 L 10.3125 -11.09375 C 10.132812 -11.988281 9.789062 -12.628906 9.28125 -13.015625 C 8.769531 -13.410156 8.082031 -13.59375 7.21875 -13.5625 C 6.125 -13.53125 5.300781 -13.09375 4.75 -12.25 C 4.207031 -11.40625 3.957031 -10.164062 4 -8.53125 L 4.03125 -7.53125 C 4.09375 -5.882812 4.453125 -4.648438 5.109375 -3.828125 C 5.773438 -3.015625 6.710938 -2.628906 7.921875 -2.671875 C 9.128906 -2.710938 9.984375 -3 10.484375 -3.53125 L 10.390625 -6.25 L 7.453125 -6.140625 L 7.359375 -8.515625 L 13.515625 -8.734375 Z M 13.75 -2.46875 "/></g></g></g><g fill="#004aad" fill-opacity="1"><g transform="translate(40.640806, 21.216392)"><g><path d="M 13.109375 -13.1875 L 8.3125 -13.15625 L 8.421875 -0.078125 L 5.171875 -0.046875 L 5.0625 -13.125 L 0.328125 -13.078125 L 0.3125 -15.703125 L 13.09375 -15.8125 Z M 13.109375 -13.1875 "/></g></g></g><g fill="#004aad" fill-opacity="1"><g transform="translate(54.769968, 21.09739)"><g><path d="M 13.578125 -15.46875 L 13.390625 -5.125 C 13.359375 -3.40625 12.796875 -2.050781 11.703125 -1.0625 C 10.609375 -0.0820312 9.128906 0.382812 7.265625 0.34375 C 5.429688 0.3125 3.984375 -0.195312 2.921875 -1.1875 C 1.859375 -2.1875 1.332031 -3.535156 1.34375 -5.234375 L 1.53125 -15.6875 L 4.765625 -15.625 L 4.578125 -5.265625 C 4.554688 -4.234375 4.789062 -3.476562 5.28125 -3 C 5.769531 -2.519531 6.445312 -2.273438 7.3125 -2.265625 C 9.132812 -2.222656 10.078125 -3.15625 10.140625 -5.0625 L 10.328125 -15.515625 Z M 13.578125 -15.46875 "/></g></g></g><g fill="#004aad" fill-opacity="1"><g transform="translate(69.758009, 21.366323)"><g><path d="M 14.15625 0.65625 L 10.921875 0.5 L 5.125 -10.09375 L 4.640625 0.21875 L 1.40625 0.0625 L 2.125 -15.625 L 5.359375 -15.46875 L 11.1875 -4.84375 L 11.65625 -15.1875 L 14.875 -15.03125 Z M 14.15625 0.65625 "/></g></g></g><g fill="#004aad" fill-opacity="1"><g transform="translate(85.785353, 22.118988)"><g><path d="M 10.46875 -2.453125 L 4.8125 -2.875 L 3.5 0.265625 L 0.078125 0 L 7.078125 -15.21875 L 10.0625 -14.984375 L 14.75 1.109375 L 11.328125 0.84375 Z M 5.890625 -5.4375 L 9.796875 -5.140625 L 8.28125 -11.15625 Z M 5.890625 -5.4375 "/></g></g></g></svg>