<svg xmlns="http://www.w3.org/2000/svg" xmlns:xlink="http://www.w3.org/1999/xlink" width="140" zoomAndPan="magnify" viewBox="0 0 104.88 30.000001" height="40" preserveAspectRatio="xMidYMid meet" version="1.0"><defs><g/><clipPath id="40c613036a"><path d="M 6 1 L 32 1 L 32 28 L 6 28 Z M 6 1 " clip-rule="nonzero"/></clipPath><clipPath id="4258f7fcfc"><path d="M 6.453125 27.894531 L 7.011719 0.320312 L 31.683594 0.820312 L 31.125 28.394531 Z M 6.453125 27.894531 " clip-rule="nonzero"/></clipPath><clipPath id="35f92762bc"><path d="M 6.453125 27.894531 L 7.011719 0.320312 L 31.683594 0.820312 L 31.125 28.394531 Z M 6.453125 27.894531 " clip-rule="nonzero"/></clipPath><clipPath id="4cf4f26e93"><path d="M 8.113281 4.410156 L 29 4.410156 L 29 25.460938 L 8.113281 25.460938 Z M 8.113281 4.410156 " clip-rule="nonzero"/></clipPath></defs><g clip-path="url(#40c613036a)"><g clip-path="url(#4258f7fcfc)"><g clip-path="url(#35f92762bc)"><path fill="#ffffff" d="M 25.183594 1.132812 C 26.410156 1.402344 27.570312 2.082031 28.535156 2.867188 C 28.96875 3.21875 29.382812 3.613281 29.707031 4.066406 C 30.007812 4.488281 30.230469 4.964844 30.410156 5.449219 C 30.839844 6.625 31.027344 7.886719 31.078125 9.132812 C 31.128906 10.421875 31.027344 11.734375 30.703125 12.984375 C 30.433594 14.023438 29.992188 15.085938 29.191406 15.828125 C 28.550781 16.417969 27.796875 16.878906 27.191406 17.511719 C 26.59375 18.140625 26.117188 18.902344 25.734375 19.679688 C 25.40625 20.34375 25.144531 21.035156 24.839844 21.710938 C 24.519531 22.414062 24.136719 23.082031 23.648438 23.679688 C 23.132812 24.316406 22.535156 24.875 21.773438 25.207031 C 21.082031 25.507812 20.328125 25.632812 19.578125 25.667969 C 18.78125 25.707031 17.992188 25.625 17.199219 25.570312 C 16.742188 25.539062 16.296875 25.574219 15.914062 25.84375 C 15.59375 26.070312 15.347656 26.386719 15.09375 26.679688 C 14.65625 27.191406 14.15625 27.605469 13.507812 27.816406 C 12.925781 28.007812 12.296875 28.015625 11.699219 27.894531 C 10.398438 27.636719 9.226562 26.792969 8.464844 25.722656 C 8.058594 25.152344 7.757812 24.496094 7.503906 23.847656 C 7.261719 23.222656 7.085938 22.574219 6.980469 21.914062 C 6.726562 20.363281 6.824219 18.773438 6.949219 17.21875 C 7.054688 16.433594 7.078125 15.644531 7.011719 14.855469 C 6.960938 14.265625 6.859375 13.683594 6.820312 13.09375 C 6.78125 12.546875 6.839844 12.019531 7.03125 11.507812 C 7.308594 10.773438 7.765625 10.148438 8.210938 9.507812 C 8.433594 9.191406 8.644531 8.867188 8.824219 8.523438 C 9.007812 8.164062 9.140625 7.78125 9.269531 7.398438 C 9.511719 6.695312 9.722656 5.980469 9.992188 5.289062 C 10.242188 4.644531 10.535156 4.007812 10.96875 3.46875 C 11.394531 2.9375 11.960938 2.523438 12.628906 2.359375 C 13.398438 2.167969 14.195312 2.335938 14.914062 2.636719 C 15.726562 2.980469 16.464844 3.480469 17.179688 3.996094 C 17.785156 4.429688 18.414062 4.972656 19.191406 5.050781 C 19.851562 5.117188 20.429688 4.773438 20.910156 4.355469 C 21.234375 4.078125 21.554688 3.765625 21.820312 3.429688 C 22.070312 3.105469 22.261719 2.738281 22.464844 2.382812 C 22.757812 1.863281 23.085938 1.351562 23.671875 1.148438 C 24.15625 0.984375 24.691406 1.027344 25.183594 1.132812 Z M 25.183594 1.132812 " fill-opacity="1" fill-rule="nonzero"/></g></g></g><g clip-path="url(#4cf4f26e93)"><path fill="#1a2239" d="M 28.882812 12.039062 C 28.878906 12.007812 28.867188 11.992188 28.859375 11.976562 C 28.851562 11.964844 28.84375 11.953125 28.835938 11.941406 C 28.820312 11.921875 28.808594 11.90625 28.792969 11.894531 C 28.714844 11.816406 28.628906 11.75 28.542969 11.6875 C 28.105469 11.363281 27.644531 11.070312 27.222656 10.726562 C 27.121094 10.640625 27.019531 10.554688 26.929688 10.460938 C 26.84375 10.371094 26.761719 10.265625 26.777344 10.195312 C 26.78125 10.082031 26.824219 9.945312 26.859375 9.832031 C 27.230469 8.804688 27.765625 7.835938 28.265625 6.871094 C 28.285156 6.808594 28.246094 6.742188 28.1875 6.726562 C 27.03125 6.386719 25.859375 6.113281 24.675781 5.914062 C 21.160156 5.355469 17.242188 5.273438 14.128906 7.234375 C 14.007812 7.3125 13.886719 7.394531 13.773438 7.480469 C 13.59375 7.046875 12.832031 5.425781 10.941406 4.414062 C 10.941406 4.414062 11.914062 5.089844 11.738281 6.539062 C 11.738281 6.539062 12.140625 7.238281 11.578125 8.113281 C 11.578125 8.113281 12.089844 8.839844 11.375 9.550781 C 11.375 9.550781 11.414062 9.96875 11.378906 10.4375 C 11.214844 10.796875 11.070312 11.164062 10.953125 11.546875 C 10.757812 12.140625 10.625 12.753906 10.5625 13.378906 C 9.691406 14.019531 8.84375 14.808594 8.113281 15.773438 C 8.113281 15.773438 8.925781 14.945312 10.519531 14.246094 C 10.523438 15.152344 10.679688 16.058594 11.003906 16.910156 C 11.414062 17.984375 12.042969 18.980469 12.875 19.777344 C 12.679688 20.199219 12.621094 20.800781 12.628906 21.273438 C 12.707031 24.585938 15.417969 25.117188 15.417969 25.117188 C 13.953125 24.535156 13.207031 22.773438 13.257812 21.015625 C 13.265625 20.71875 13.316406 20.417969 13.398438 20.125 C 15.6875 22.289062 18.371094 22.246094 18.789062 22.226562 C 21.277344 24.566406 23.644531 23.476562 23.644531 23.476562 C 21.898438 23.613281 20.957031 22.664062 20.957031 22.664062 C 21.175781 22.664062 21.339844 22.5625 21.339844 22.5625 C 20.300781 22.246094 19.84375 21.839844 19.84375 21.839844 C 19.84375 21.015625 20.25 20.117188 20.25 20.117188 C 20.070312 20.207031 19.96875 20.269531 19.96875 20.269531 C 20.3125 18.699219 21.921875 18.050781 21.921875 18.050781 C 19.054688 18.882812 18.710938 21.234375 18.671875 21.917969 C 14.976562 21.871094 14.753906 18.558594 14.75 17.832031 C 15.691406 17.003906 16.820312 16.375 17.957031 15.824219 C 17.597656 16.128906 17.425781 16.402344 17.425781 16.402344 C 18.980469 16.644531 18.214844 18.609375 18.214844 18.609375 C 19.050781 16.964844 18.941406 15.757812 18.878906 15.390625 C 20.785156 14.550781 22.757812 13.871094 24.75 13.269531 C 26.085938 12.867188 27.4375 12.496094 28.792969 12.175781 C 28.902344 12.140625 28.882812 12.039062 28.882812 12.039062 Z M 10.964844 13.089844 C 11.390625 11.179688 12.976562 6.953125 18.769531 6.117188 L 16.527344 7.078125 C 16.527344 7.078125 12.472656 8.644531 11.078125 13.015625 C 11.042969 13.039062 11.003906 13.066406 10.964844 13.089844 Z M 13.375 7.789062 C 13.320312 7.835938 13.269531 7.882812 13.214844 7.925781 C 13.035156 7.707031 12.585938 7.1875 11.941406 6.625 C 11.941406 6.625 12.65625 7.058594 13.375 7.789062 Z M 11.730469 8.121094 C 11.730469 8.121094 11.988281 8.144531 12.703125 8.4375 C 12.667969 8.472656 12.636719 8.511719 12.601562 8.546875 C 12.425781 8.453125 12.148438 8.316406 11.730469 8.121094 Z M 15.8125 11.160156 C 15.726562 11.246094 15.597656 11.429688 15.597656 11.429688 C 11.957031 12.308594 9.957031 14.167969 9.957031 14.167969 C 12.101562 12.070312 15.8125 11.160156 15.8125 11.160156 Z M 13.539062 19.699219 C 13.726562 19.195312 13.984375 18.730469 14.222656 18.351562 C 14.433594 19.292969 14.738281 20.242188 14.738281 20.242188 C 14.21875 20.09375 13.757812 19.832031 13.539062 19.699219 Z M 18.734375 15.148438 C 17.285156 15.820312 15.300781 16.78125 14.167969 18.085938 C 13.699219 18.539062 13.277344 19.027344 12.984375 19.558594 C 12.625 19.207031 12.3125 18.8125 12.03125 18.394531 C 11.480469 17.578125 11.097656 16.65625 10.902344 15.695312 C 10.972656 15.050781 11.148438 14.453125 11.398438 13.90625 C 12.628906 13.492188 14.199219 13.207031 16.097656 13.328125 C 16.097656 13.328125 14.355469 12.175781 16.914062 10.65625 C 16.914062 10.65625 14.878906 10.957031 12.546875 12.152344 C 14.144531 10.320312 16.417969 9.285156 17.238281 8.949219 C 17.195312 9.054688 17.164062 9.15625 17.140625 9.257812 C 17.109375 9.453125 17.144531 9.65625 17.167969 9.847656 C 17.320312 10.816406 17.65625 11.925781 18.242188 12.722656 C 18.410156 12.941406 18.609375 13.152344 18.871094 13.257812 C 18.875 13.257812 18.875 13.257812 18.878906 13.261719 C 18.964844 13.304688 19.070312 13.335938 19.160156 13.367188 C 19.898438 13.589844 20.824219 13.632812 21.421875 13.0625 C 21.632812 12.859375 21.773438 12.578125 21.835938 12.296875 C 21.839844 12.289062 21.835938 12.277344 21.824219 12.277344 C 21.816406 12.269531 21.804688 12.277344 21.800781 12.285156 C 21.722656 12.457031 21.628906 12.621094 21.511719 12.757812 C 21.394531 12.890625 21.25 13.007812 21.089844 13.085938 C 20.460938 13.394531 19.691406 13.265625 19.054688 13.035156 C 19.023438 13.023438 18.992188 13.007812 18.964844 12.992188 C 18.804688 12.867188 18.691406 12.675781 18.59375 12.496094 C 18.378906 12.082031 18.226562 11.617188 18.097656 11.160156 C 17.972656 10.703125 17.859375 10.222656 17.789062 9.753906 C 17.769531 9.632812 17.753906 9.507812 17.75 9.386719 C 17.761719 9.253906 17.828125 9.109375 17.886719 8.980469 C 18.203125 8.355469 18.613281 7.761719 19.003906 7.167969 C 19.777344 6.542969 20.390625 6.417969 20.570312 6.394531 C 20.507812 6.457031 20.445312 6.523438 20.382812 6.585938 C 20.273438 6.695312 20.171875 6.8125 20.09375 6.914062 C 19.816406 7.242188 19.566406 7.589844 19.34375 7.957031 C 18.816406 8.820312 18.523438 9.777344 19.273438 10.625 C 19.789062 11.1875 20.601562 11.441406 21.339844 11.300781 C 21.746094 11.226562 22.132812 11.027344 22.414062 10.726562 C 22.503906 10.625 22.585938 10.515625 22.636719 10.386719 C 22.640625 10.382812 22.636719 10.375 22.632812 10.371094 C 22.625 10.367188 22.617188 10.371094 22.613281 10.378906 C 22.25 10.96875 21.472656 11.21875 20.808594 11.121094 C 19.898438 10.988281 19.121094 10.210938 19.214844 9.296875 C 19.296875 8.632812 19.734375 7.839844 20.167969 7.136719 C 23.363281 6.089844 27.273438 6.9375 27.273438 6.9375 L 27.972656 6.917969 C 27.609375 7.597656 27.261719 8.28125 26.945312 8.984375 C 26.832031 9.238281 26.726562 9.492188 26.636719 9.757812 C 26.589844 9.898438 26.546875 10.03125 26.539062 10.1875 C 26.527344 10.480469 26.878906 10.738281 27.070312 10.910156 C 27.390625 11.167969 27.734375 11.402344 28.070312 11.636719 C 28.183594 11.714844 28.292969 11.792969 28.398438 11.875 C 28.449219 11.914062 28.5 11.949219 28.546875 11.988281 C 25.195312 12.765625 21.882812 13.757812 18.734375 15.148438 Z M 18.734375 15.148438 " fill-opacity="1" fill-rule="nonzero"/></g><path fill="#1a2239" d="M 26.148438 10.242188 C 25.96875 9.734375 27.230469 7.628906 27.460938 7.25 C 27.496094 7.191406 27.496094 7.167969 27.488281 7.175781 C 27.121094 7.445312 26.789062 7.761719 26.46875 8.082031 C 26.070312 8.488281 25.703125 8.925781 25.367188 9.386719 C 25.234375 9.558594 25.09375 9.761719 24.972656 9.945312 C 24.796875 10.214844 24.605469 10.53125 24.410156 10.785156 C 24.285156 10.9375 24.148438 11.117188 23.960938 11.183594 C 23.878906 11.203125 23.84375 11.160156 23.800781 11.09375 C 23.710938 10.925781 23.648438 10.683594 23.625 10.488281 C 23.59375 10.214844 23.703125 10 23.902344 9.820312 C 24.101562 9.621094 24.300781 9.414062 24.5 9.214844 C 24.816406 8.894531 25.144531 8.582031 25.472656 8.273438 C 25.804688 7.964844 26.140625 7.667969 26.480469 7.367188 C 26.488281 7.359375 26.492188 7.347656 26.484375 7.339844 C 26.480469 7.332031 26.464844 7.332031 26.457031 7.335938 C 25.722656 7.867188 25.027344 8.457031 24.367188 9.082031 C 24.203125 9.238281 24.042969 9.398438 23.878906 9.558594 C 23.808594 9.628906 23.699219 9.726562 23.632812 9.800781 C 23.363281 10.097656 23.367188 10.503906 23.484375 10.863281 C 23.574219 11.226562 23.785156 11.585938 24.199219 11.300781 C 24.246094 11.261719 24.292969 11.226562 24.332031 11.183594 C 25.871094 12.09375 27.972656 11.8125 27.972656 11.8125 C 27.972656 11.8125 26.347656 10.804688 26.148438 10.246094 Z M 26.148438 10.242188 " fill-opacity="1" fill-rule="nonzero"/><path fill="#1a2239" d="M 23.882812 8.402344 C 24.253906 8.566406 24.628906 8.390625 24.898438 8.128906 C 25.164062 7.886719 25.421875 7.511719 25.25 7.140625 C 25.140625 6.898438 24.855469 6.804688 24.617188 6.753906 C 24.0625 6.644531 23.023438 6.769531 23.191406 7.550781 C 23.269531 7.925781 23.535156 8.253906 23.882812 8.402344 Z M 23.464844 7.109375 C 23.679688 6.9375 23.976562 6.894531 24.25 6.878906 C 24.542969 6.875 25.003906 6.914062 25.15625 7.1875 C 25.320312 7.503906 25.097656 7.875 24.871094 8.097656 C 24.613281 8.332031 24.246094 8.460938 23.925781 8.300781 C 23.628906 8.15625 23.40625 7.84375 23.347656 7.523438 C 23.324219 7.367188 23.339844 7.210938 23.464844 7.109375 Z M 23.464844 7.109375 " fill-opacity="1" fill-rule="nonzero"/><path fill="#1a2239" d="M 24.242188 8.007812 C 24.550781 8.070312 24.847656 7.757812 24.847656 7.507812 C 24.847656 7.257812 24.574219 7.085938 24.320312 7.085938 C 24.214844 7.085938 24.101562 7.101562 24 7.132812 C 24.121094 7.140625 24.21875 7.222656 24.21875 7.324219 C 24.21875 7.429688 24.117188 7.515625 23.988281 7.515625 C 23.878906 7.515625 23.789062 7.453125 23.765625 7.367188 C 23.765625 7.382812 23.761719 7.394531 23.761719 7.414062 C 23.761719 7.664062 23.863281 7.933594 24.242188 8.011719 Z M 24.242188 8.007812 " fill-opacity="1" fill-rule="nonzero"/><g fill="#ffffff" fill-opacity="1"><g transform="translate(28.223679, 20.736983)"><g><path d="M 1.1875 -0.078125 L 0.375 -13.359375 L 5.03125 -13.640625 C 6.644531 -13.734375 7.890625 -13.5 8.765625 -12.9375 C 9.640625 -12.382812 10.113281 -11.507812 10.1875 -10.3125 C 10.21875 -9.65625 10.082031 -9.066406 9.78125 -8.546875 C 9.476562 -8.035156 9.03125 -7.644531 8.4375 -7.375 C 9.132812 -7.238281 9.695312 -6.925781 10.125 -6.4375 C 10.550781 -5.945312 10.789062 -5.332031 10.84375 -4.59375 C 10.914062 -3.3125 10.5625 -2.3125 9.78125 -1.59375 C 9.007812 -0.882812 7.863281 -0.484375 6.34375 -0.390625 Z M 3.59375 -6.015625 L 3.796875 -2.4375 L 6.125 -2.578125 C 6.769531 -2.617188 7.265625 -2.800781 7.609375 -3.125 C 7.960938 -3.457031 8.125 -3.894531 8.09375 -4.4375 C 8.019531 -5.644531 7.351562 -6.222656 6.09375 -6.171875 Z M 3.46875 -7.953125 L 5.484375 -8.078125 C 6.867188 -8.191406 7.53125 -8.785156 7.46875 -9.859375 C 7.425781 -10.460938 7.21875 -10.882812 6.84375 -11.125 C 6.476562 -11.375 5.921875 -11.476562 5.171875 -11.4375 L 3.265625 -11.3125 Z M 3.46875 -7.953125 "/></g></g></g><g fill="#ffffff" fill-opacity="1"><g transform="translate(38.300578, 20.136093)"><g><path d="M 4.109375 -0.1875 L 1.359375 -0.0625 L 0.75 -13.359375 L 3.5 -13.484375 Z M 4.109375 -0.1875 "/></g></g></g><g fill="#ffffff" fill-opacity="1"><g transform="translate(41.892072, 19.928353)"><g><path d="M 11.6875 -2.046875 C 11.195312 -1.429688 10.503906 -0.945312 9.609375 -0.59375 C 8.722656 -0.238281 7.726562 -0.046875 6.625 -0.015625 C 5.476562 0.015625 4.460938 -0.203125 3.578125 -0.671875 C 2.691406 -1.148438 2 -1.863281 1.5 -2.8125 C 1 -3.757812 0.722656 -4.878906 0.671875 -6.171875 L 0.640625 -7.078125 C 0.597656 -8.398438 0.785156 -9.550781 1.203125 -10.53125 C 1.628906 -11.519531 2.253906 -12.285156 3.078125 -12.828125 C 3.910156 -13.367188 4.894531 -13.660156 6.03125 -13.703125 C 7.613281 -13.742188 8.859375 -13.398438 9.765625 -12.671875 C 10.679688 -11.953125 11.242188 -10.875 11.453125 -9.4375 L 8.78125 -9.359375 C 8.632812 -10.117188 8.347656 -10.664062 7.921875 -11 C 7.492188 -11.34375 6.910156 -11.503906 6.171875 -11.484375 C 5.242188 -11.453125 4.546875 -11.078125 4.078125 -10.359375 C 3.609375 -9.648438 3.394531 -8.601562 3.4375 -7.21875 L 3.46875 -6.359375 C 3.507812 -4.960938 3.800781 -3.914062 4.34375 -3.21875 C 4.894531 -2.519531 5.6875 -2.1875 6.71875 -2.21875 C 7.75 -2.25 8.476562 -2.492188 8.90625 -2.953125 L 8.828125 -5.234375 L 6.328125 -5.171875 L 6.265625 -7.203125 L 11.515625 -7.359375 Z M 11.6875 -2.046875 "/></g></g></g><g fill="#ffffff" fill-opacity="1"><g transform="translate(52.747355, 19.583742)"><g><path d="M 11.125 -11.1875 L 7.046875 -11.15625 L 7.140625 -0.0625 L 4.390625 -0.03125 L 4.296875 -11.125 L 0.265625 -11.09375 L 0.25 -13.3125 L 11.109375 -13.40625 Z M 11.125 -11.1875 "/></g></g></g><g fill="#ffffff" fill-opacity="1"><g transform="translate(62.439428, 19.477489)"><g><path d="M 11.4375 -13.171875 L 11.328125 -4.40625 C 11.304688 -2.945312 10.832031 -1.796875 9.90625 -0.953125 C 8.988281 -0.117188 7.742188 0.285156 6.171875 0.265625 C 4.609375 0.242188 3.375 -0.179688 2.46875 -1.015625 C 1.570312 -1.847656 1.125 -2.988281 1.125 -4.4375 L 1.234375 -13.296875 L 3.984375 -13.265625 L 3.875 -4.484375 C 3.863281 -3.609375 4.0625 -2.96875 4.46875 -2.5625 C 4.882812 -2.15625 5.460938 -1.945312 6.203125 -1.9375 C 7.742188 -1.914062 8.535156 -2.71875 8.578125 -4.34375 L 8.6875 -13.203125 Z M 11.4375 -13.171875 "/></g></g></g><g fill="#ffffff" fill-opacity="1"><g transform="translate(72.863174, 19.58641)"><g><path d="M 12 0.4375 L 9.28125 0.34375 L 4.25 -8.625 L 3.9375 0.140625 L 1.1875 0.046875 L 1.671875 -13.25 L 4.421875 -13.15625 L 9.453125 -4.1875 L 9.765625 -12.953125 L 12.484375 -12.859375 Z M 12 0.4375 "/></g></g></g><g fill="#ffffff" fill-opacity="1"><g transform="translate(84.175289, 19.978731)"><g><path d="M 8.859375 -2.234375 L 4.0625 -2.515625 L 2.984375 0.171875 L 0.0625 0 L 5.796875 -12.984375 L 8.34375 -12.828125 L 12.53125 0.75 L 9.609375 0.578125 Z M 4.921875 -4.671875 L 8.25 -4.46875 L 6.875 -9.5625 Z M 4.921875 -4.671875 "/></g></g></g></svg>